<svg width="16" height="17" viewBox="0 0 16 17" fill="none" xmlns="http://www.w3.org/2000/svg">
    <path d="M14.284 7.89667L2.95067 2.56333C2.83654 2.50963 2.70953 2.48941 2.58437 2.50501C2.45922 2.52061 2.34105 2.57139 2.2436 2.65146C2.14615 2.73153 2.07341 2.8376 2.03383 2.95735C1.99425 3.0771 1.98946 3.20563 2.02 3.328L2.828 6.56067L8 8.5L2.828 10.4393L2.02 13.672C1.98888 13.7945 1.99328 13.9233 2.03267 14.0433C2.07207 14.1634 2.14484 14.2697 2.24246 14.3499C2.34009 14.4301 2.45854 14.4809 2.58396 14.4963C2.70937 14.5116 2.83657 14.4909 2.95067 14.4367L14.284 9.10333C14.3985 9.0495 14.4954 8.96417 14.5632 8.85733C14.631 8.75049 14.6671 8.62655 14.6671 8.5C14.6671 8.37345 14.631 8.24951 14.5632 8.14267C14.4954 8.03583 14.3985 7.9505 14.284 7.89667Z" fill="#C8C8C8"/>
</svg>
